<?xml version="1.0" encoding="utf-8" standalone="no"?>
<!DOCTYPE svg PUBLIC "-//W3C//DTD SVG 1.1//EN"
  "http://www.w3.org/Graphics/SVG/1.1/DTD/svg11.dtd">
<svg xmlns:xlink="http://www.w3.org/1999/xlink" width="739.089375pt" height="323.702014pt" viewBox="0 0 739.089375 323.702014" xmlns="http://www.w3.org/2000/svg" version="1.1">
 <metadata>
  <rdf:RDF xmlns:dc="http://purl.org/dc/elements/1.1/" xmlns:cc="http://creativecommons.org/ns#" xmlns:rdf="http://www.w3.org/1999/02/22-rdf-syntax-ns#">
   <cc:Work>
    <dc:type rdf:resource="http://purl.org/dc/dcmitype/StillImage"/>
    <dc:date>2024-09-23T22:39:43.096075</dc:date>
    <dc:format>image/svg+xml</dc:format>
    <dc:creator>
     <cc:Agent>
      <dc:title>Matplotlib v3.9.2, https://matplotlib.org/</dc:title>
     </cc:Agent>
    </dc:creator>
   </cc:Work>
  </rdf:RDF>
 </metadata>
 <defs>
  <style type="text/css">*{stroke-linejoin: round; stroke-linecap: butt}</style>
 </defs>
 <g id="figure_1">
  <g id="patch_1">
   <path d="M 0 323.702014 
L 739.089375 323.702014 
L 739.089375 0 
L 0 0 
z
" style="fill: #ffffff"/>
  </g>
  <g id="axes_1">
   <g id="patch_2">
    <path d="M 62.289375 245.597813 
L 731.889375 245.597813 
L 731.889375 23.837813 
L 62.289375 23.837813 
z
" style="fill: #ffffff"/>
   </g>
   <g id="patch_3">
    <path d="M 92.725739 245.597813 
L 120.084268 245.597813 
L 120.084268 233.416601 
L 92.725739 233.416601 
z
" clip-path="url(#p6d855c5fd0)" style="fill: #17becf"/>
   </g>
   <g id="patch_4">
    <path d="M 126.9239 245.597813 
L 154.282429 245.597813 
L 154.282429 243.64829 
L 126.9239 243.64829 
z
" clip-path="url(#p6d855c5fd0)" style="fill: #008000"/>
   </g>
   <g id="patch_5">
    <path d="M 161.122061 245.597813 
L 188.480591 245.597813 
L 188.480591 242.164723 
L 161.122061 242.164723 
z
" clip-path="url(#p6d855c5fd0)" style="fill: #17becf"/>
   </g>
   <g id="patch_6">
    <path d="M 195.320223 245.597813 
L 222.678752 245.597813 
L 222.678752 242.431616 
L 195.320223 242.431616 
z
" clip-path="url(#p6d855c5fd0)" style="fill: #17becf"/>
   </g>
   <g id="patch_7">
    <path d="M 229.518384 245.597813 
L 256.876913 245.597813 
L 256.876913 239.276411 
L 229.518384 239.276411 
z
" clip-path="url(#p6d855c5fd0)" style="fill: #17becf"/>
   </g>
   <g id="patch_8">
    <path d="M 263.716546 245.597813 
L 291.075075 245.597813 
L 291.075075 242.620787 
L 263.716546 242.620787 
z
" clip-path="url(#p6d855c5fd0)" style="fill: #17becf"/>
   </g>
   <g id="patch_9">
    <path d="M 297.914707 245.597813 
L 325.273236 245.597813 
L 325.273236 242.694898 
L 297.914707 242.694898 
z
" clip-path="url(#p6d855c5fd0)" style="fill: #17becf"/>
   </g>
   <g id="patch_10">
    <path d="M 332.112868 245.597813 
L 359.471397 245.597813 
L 359.471397 242.658502 
L 332.112868 242.658502 
z
" clip-path="url(#p6d855c5fd0)" style="fill: #17becf"/>
   </g>
   <g id="patch_11">
    <path d="M 366.31103 245.597813 
L 393.669559 245.597813 
L 393.669559 239.717433 
L 366.31103 239.717433 
z
" clip-path="url(#p6d855c5fd0)" style="fill: #17becf"/>
   </g>
   <g id="patch_12">
    <path d="M 400.509191 245.597813 
L 427.86772 245.597813 
L 427.86772 242.754564 
L 400.509191 242.754564 
z
" clip-path="url(#p6d855c5fd0)" style="fill: #17becf"/>
   </g>
   <g id="patch_13">
    <path d="M 434.707353 245.597813 
L 462.065882 245.597813 
L 462.065882 242.704068 
L 434.707353 242.704068 
z
" clip-path="url(#p6d855c5fd0)" style="fill: #17becf"/>
   </g>
   <g id="patch_14">
    <path d="M 468.905514 245.597813 
L 496.264043 245.597813 
L 496.264043 242.922286 
L 468.905514 242.922286 
z
" clip-path="url(#p6d855c5fd0)" style="fill: #17becf"/>
   </g>
   <g id="patch_15">
    <path d="M 503.103675 245.597813 
L 530.462204 245.597813 
L 530.462204 242.723663 
L 503.103675 242.723663 
z
" clip-path="url(#p6d855c5fd0)" style="fill: #17becf"/>
   </g>
   <g id="patch_16">
    <path d="M 537.301837 245.597813 
L 564.660366 245.597813 
L 564.660366 241.87277 
L 537.301837 241.87277 
z
" clip-path="url(#p6d855c5fd0)" style="fill: #17becf"/>
   </g>
   <g id="patch_17">
    <path d="M 571.499998 245.597813 
L 598.858527 245.597813 
L 598.858527 242.040619 
L 571.499998 242.040619 
z
" clip-path="url(#p6d855c5fd0)" style="fill: #17becf"/>
   </g>
   <g id="patch_18">
    <path d="M 605.698159 245.597813 
L 633.056689 245.597813 
L 633.056689 243.155892 
L 605.698159 243.155892 
z
" clip-path="url(#p6d855c5fd0)" style="fill: #17becf"/>
   </g>
   <g id="patch_19">
    <path d="M 639.896321 245.597813 
L 667.25485 245.597813 
L 667.25485 242.725673 
L 639.896321 242.725673 
z
" clip-path="url(#p6d855c5fd0)" style="fill: #17becf"/>
   </g>
   <g id="patch_20">
    <path d="M 674.094482 245.597813 
L 701.453011 245.597813 
L 701.453011 34.397813 
L 674.094482 34.397813 
z
" clip-path="url(#p6d855c5fd0)" style="fill: #17becf"/>
   </g>
   <g id="matplotlib.axis_1">
    <g id="xtick_1">
     <g id="line2d_1">
      <defs>
       <path id="m94b4cbdb3c" d="M 0 0 
L 0 3.5 
" style="stroke: #000000; stroke-width: 0.8"/>
      </defs>
      <g>
       <use xlink:href="#m94b4cbdb3c" x="106.405003" y="245.597813" style="stroke: #000000; stroke-width: 0.8"/>
      </g>
     </g>
     <g id="text_1">
      <!-- IVS_r8 -->
      <g transform="translate(77.580237 285.719578) rotate(-45) scale(0.12 -0.12)">
       <defs>
        <path id="DejaVuSans-49" d="M 628 4666 
L 1259 4666 
L 1259 0 
L 628 0 
L 628 4666 
z
" transform="scale(0.015625)"/>
        <path id="DejaVuSans-56" d="M 1831 0 
L 50 4666 
L 709 4666 
L 2188 738 
L 3669 4666 
L 4325 4666 
L 2547 0 
L 1831 0 
z
" transform="scale(0.015625)"/>
        <path id="DejaVuSans-53" d="M 3425 4513 
L 3425 3897 
Q 3066 4069 2747 4153 
Q 2428 4238 2131 4238 
Q 1616 4238 1336 4038 
Q 1056 3838 1056 3469 
Q 1056 3159 1242 3001 
Q 1428 2844 1947 2747 
L 2328 2669 
Q 3034 2534 3370 2195 
Q 3706 1856 3706 1288 
Q 3706 609 3251 259 
Q 2797 -91 1919 -91 
Q 1588 -91 1214 -16 
Q 841 59 441 206 
L 441 856 
Q 825 641 1194 531 
Q 1563 422 1919 422 
Q 2459 422 2753 634 
Q 3047 847 3047 1241 
Q 3047 1584 2836 1778 
Q 2625 1972 2144 2069 
L 1759 2144 
Q 1053 2284 737 2584 
Q 422 2884 422 3419 
Q 422 4038 858 4394 
Q 1294 4750 2059 4750 
Q 2388 4750 2728 4690 
Q 3069 4631 3425 4513 
z
" transform="scale(0.015625)"/>
        <path id="DejaVuSans-5f" d="M 3263 -1063 
L 3263 -1509 
L -63 -1509 
L -63 -1063 
L 3263 -1063 
z
" transform="scale(0.015625)"/>
        <path id="DejaVuSans-72" d="M 2631 2963 
Q 2534 3019 2420 3045 
Q 2306 3072 2169 3072 
Q 1681 3072 1420 2755 
Q 1159 2438 1159 1844 
L 1159 0 
L 581 0 
L 581 3500 
L 1159 3500 
L 1159 2956 
Q 1341 3275 1631 3429 
Q 1922 3584 2338 3584 
Q 2397 3584 2469 3576 
Q 2541 3569 2628 3553 
L 2631 2963 
z
" transform="scale(0.015625)"/>
        <path id="DejaVuSans-38" d="M 2034 2216 
Q 1584 2216 1326 1975 
Q 1069 1734 1069 1313 
Q 1069 891 1326 650 
Q 1584 409 2034 409 
Q 2484 409 2743 651 
Q 3003 894 3003 1313 
Q 3003 1734 2745 1975 
Q 2488 2216 2034 2216 
z
M 1403 2484 
Q 997 2584 770 2862 
Q 544 3141 544 3541 
Q 544 4100 942 4425 
Q 1341 4750 2034 4750 
Q 2731 4750 3128 4425 
Q 3525 4100 3525 3541 
Q 3525 3141 3298 2862 
Q 3072 2584 2669 2484 
Q 3125 2378 3379 2068 
Q 3634 1759 3634 1313 
Q 3634 634 3220 271 
Q 2806 -91 2034 -91 
Q 1263 -91 848 271 
Q 434 634 434 1313 
Q 434 1759 690 2068 
Q 947 2378 1403 2484 
z
M 1172 3481 
Q 1172 3119 1398 2916 
Q 1625 2713 2034 2713 
Q 2441 2713 2670 2916 
Q 2900 3119 2900 3481 
Q 2900 3844 2670 4047 
Q 2441 4250 2034 4250 
Q 1625 4250 1398 4047 
Q 1172 3844 1172 3481 
z
" transform="scale(0.015625)"/>
       </defs>
       <use xlink:href="#DejaVuSans-49"/>
       <use xlink:href="#DejaVuSans-56" x="29.492188"/>
       <use xlink:href="#DejaVuSans-53" x="97.900391"/>
       <use xlink:href="#DejaVuSans-5f" x="161.376953"/>
       <use xlink:href="#DejaVuSans-72" x="211.376953"/>
       <use xlink:href="#DejaVuSans-38" x="252.490234"/>
      </g>
     </g>
    </g>
    <g id="xtick_2">
     <g id="line2d_2">
      <g>
       <use xlink:href="#m94b4cbdb3c" x="140.603165" y="245.597813" style="stroke: #000000; stroke-width: 0.8"/>
      </g>
     </g>
     <g id="text_2">
      <!-- IVB_r8 -->
      <g transform="translate(111.343528 286.154449) rotate(-45) scale(0.12 -0.12)">
       <defs>
        <path id="DejaVuSans-42" d="M 1259 2228 
L 1259 519 
L 2272 519 
Q 2781 519 3026 730 
Q 3272 941 3272 1375 
Q 3272 1813 3026 2020 
Q 2781 2228 2272 2228 
L 1259 2228 
z
M 1259 4147 
L 1259 2741 
L 2194 2741 
Q 2656 2741 2882 2914 
Q 3109 3088 3109 3444 
Q 3109 3797 2882 3972 
Q 2656 4147 2194 4147 
L 1259 4147 
z
M 628 4666 
L 2241 4666 
Q 2963 4666 3353 4366 
Q 3744 4066 3744 3513 
Q 3744 3084 3544 2831 
Q 3344 2578 2956 2516 
Q 3422 2416 3680 2098 
Q 3938 1781 3938 1306 
Q 3938 681 3513 340 
Q 3088 0 2303 0 
L 628 0 
L 628 4666 
z
" transform="scale(0.015625)"/>
       </defs>
       <use xlink:href="#DejaVuSans-49"/>
       <use xlink:href="#DejaVuSans-56" x="29.492188"/>
       <use xlink:href="#DejaVuSans-42" x="97.900391"/>
       <use xlink:href="#DejaVuSans-5f" x="166.503906"/>
       <use xlink:href="#DejaVuSans-72" x="216.503906"/>
       <use xlink:href="#DejaVuSans-38" x="257.617188"/>
      </g>
     </g>
    </g>
    <g id="xtick_3">
     <g id="line2d_3">
      <g>
       <use xlink:href="#m94b4cbdb3c" x="174.801326" y="245.597813" style="stroke: #000000; stroke-width: 0.8"/>
      </g>
     </g>
     <g id="text_3">
      <!-- IV_r8 -->
      <g transform="translate(151.363388 280.33275) rotate(-45) scale(0.12 -0.12)">
       <use xlink:href="#DejaVuSans-49"/>
       <use xlink:href="#DejaVuSans-56" x="29.492188"/>
       <use xlink:href="#DejaVuSans-5f" x="97.900391"/>
       <use xlink:href="#DejaVuSans-72" x="147.900391"/>
       <use xlink:href="#DejaVuSans-38" x="189.013672"/>
      </g>
     </g>
    </g>
    <g id="xtick_4">
     <g id="line2d_4">
      <g>
       <use xlink:href="#m94b4cbdb3c" x="208.999487" y="245.597813" style="stroke: #000000; stroke-width: 0.8"/>
      </g>
     </g>
     <g id="text_4">
      <!-- IV_r9 -->
      <g transform="translate(185.561549 280.33275) rotate(-45) scale(0.12 -0.12)">
       <defs>
        <path id="DejaVuSans-39" d="M 703 97 
L 703 672 
Q 941 559 1184 500 
Q 1428 441 1663 441 
Q 2288 441 2617 861 
Q 2947 1281 2994 2138 
Q 2813 1869 2534 1725 
Q 2256 1581 1919 1581 
Q 1219 1581 811 2004 
Q 403 2428 403 3163 
Q 403 3881 828 4315 
Q 1253 4750 1959 4750 
Q 2769 4750 3195 4129 
Q 3622 3509 3622 2328 
Q 3622 1225 3098 567 
Q 2575 -91 1691 -91 
Q 1453 -91 1209 -44 
Q 966 3 703 97 
z
M 1959 2075 
Q 2384 2075 2632 2365 
Q 2881 2656 2881 3163 
Q 2881 3666 2632 3958 
Q 2384 4250 1959 4250 
Q 1534 4250 1286 3958 
Q 1038 3666 1038 3163 
Q 1038 2656 1286 2365 
Q 1534 2075 1959 2075 
z
" transform="scale(0.015625)"/>
       </defs>
       <use xlink:href="#DejaVuSans-49"/>
       <use xlink:href="#DejaVuSans-56" x="29.492188"/>
       <use xlink:href="#DejaVuSans-5f" x="97.900391"/>
       <use xlink:href="#DejaVuSans-72" x="147.900391"/>
       <use xlink:href="#DejaVuSans-39" x="189.013672"/>
      </g>
     </g>
    </g>
    <g id="xtick_5">
     <g id="line2d_5">
      <g>
       <use xlink:href="#m94b4cbdb3c" x="243.197649" y="245.597813" style="stroke: #000000; stroke-width: 0.8"/>
      </g>
     </g>
     <g id="text_5">
      <!-- IVS_r11 -->
      <g transform="translate(208.974122 291.118338) rotate(-45) scale(0.12 -0.12)">
       <defs>
        <path id="DejaVuSans-31" d="M 794 531 
L 1825 531 
L 1825 4091 
L 703 3866 
L 703 4441 
L 1819 4666 
L 2450 4666 
L 2450 531 
L 3481 531 
L 3481 0 
L 794 0 
L 794 531 
z
" transform="scale(0.015625)"/>
       </defs>
       <use xlink:href="#DejaVuSans-49"/>
       <use xlink:href="#DejaVuSans-56" x="29.492188"/>
       <use xlink:href="#DejaVuSans-53" x="97.900391"/>
       <use xlink:href="#DejaVuSans-5f" x="161.376953"/>
       <use xlink:href="#DejaVuSans-72" x="211.376953"/>
       <use xlink:href="#DejaVuSans-31" x="252.490234"/>
       <use xlink:href="#DejaVuSans-31" x="316.113281"/>
      </g>
     </g>
    </g>
    <g id="xtick_6">
     <g id="line2d_6">
      <g>
       <use xlink:href="#m94b4cbdb3c" x="277.39581" y="245.597813" style="stroke: #000000; stroke-width: 0.8"/>
      </g>
     </g>
     <g id="text_6">
      <!-- IVB_r11 -->
      <g transform="translate(242.737413 291.46703) rotate(-45) scale(0.12 -0.12)">
       <use xlink:href="#DejaVuSans-49"/>
       <use xlink:href="#DejaVuSans-56" x="29.492188"/>
       <use xlink:href="#DejaVuSans-42" x="97.900391"/>
       <use xlink:href="#DejaVuSans-5f" x="166.503906"/>
       <use xlink:href="#DejaVuSans-72" x="216.503906"/>
       <use xlink:href="#DejaVuSans-31" x="257.617188"/>
       <use xlink:href="#DejaVuSans-31" x="321.240234"/>
      </g>
     </g>
    </g>
    <g id="xtick_7">
     <g id="line2d_7">
      <g>
       <use xlink:href="#m94b4cbdb3c" x="311.593972" y="245.597813" style="stroke: #000000; stroke-width: 0.8"/>
      </g>
     </g>
     <g id="text_7">
      <!-- IV_r11 -->
      <g transform="translate(282.757273 285.645332) rotate(-45) scale(0.12 -0.12)">
       <use xlink:href="#DejaVuSans-49"/>
       <use xlink:href="#DejaVuSans-56" x="29.492188"/>
       <use xlink:href="#DejaVuSans-5f" x="97.900391"/>
       <use xlink:href="#DejaVuSans-72" x="147.900391"/>
       <use xlink:href="#DejaVuSans-31" x="189.013672"/>
       <use xlink:href="#DejaVuSans-31" x="252.636719"/>
      </g>
     </g>
    </g>
    <g id="xtick_8">
     <g id="line2d_8">
      <g>
       <use xlink:href="#m94b4cbdb3c" x="345.792133" y="245.597813" style="stroke: #000000; stroke-width: 0.8"/>
      </g>
     </g>
     <g id="text_8">
      <!-- IV_r12 -->
      <g transform="translate(316.955434 285.73151) rotate(-45) scale(0.12 -0.12)">
       <defs>
        <path id="DejaVuSans-32" d="M 1228 531 
L 3431 531 
L 3431 0 
L 469 0 
L 469 531 
Q 828 903 1448 1529 
Q 2069 2156 2228 2338 
Q 2531 2678 2651 2914 
Q 2772 3150 2772 3378 
Q 2772 3750 2511 3984 
Q 2250 4219 1831 4219 
Q 1534 4219 1204 4116 
Q 875 4013 500 3803 
L 500 4441 
Q 881 4594 1212 4672 
Q 1544 4750 1819 4750 
Q 2544 4750 2975 4387 
Q 3406 4025 3406 3419 
Q 3406 3131 3298 2873 
Q 3191 2616 2906 2266 
Q 2828 2175 2409 1742 
Q 1991 1309 1228 531 
z
" transform="scale(0.015625)"/>
       </defs>
       <use xlink:href="#DejaVuSans-49"/>
       <use xlink:href="#DejaVuSans-56" x="29.492188"/>
       <use xlink:href="#DejaVuSans-5f" x="97.900391"/>
       <use xlink:href="#DejaVuSans-72" x="147.900391"/>
       <use xlink:href="#DejaVuSans-31" x="189.013672"/>
       <use xlink:href="#DejaVuSans-32" x="252.636719"/>
      </g>
     </g>
    </g>
    <g id="xtick_9">
     <g id="line2d_9">
      <g>
       <use xlink:href="#m94b4cbdb3c" x="379.990294" y="245.597813" style="stroke: #000000; stroke-width: 0.8"/>
      </g>
     </g>
     <g id="text_9">
      <!-- IVS_r13 -->
      <g transform="translate(345.766768 291.118338) rotate(-45) scale(0.12 -0.12)">
       <defs>
        <path id="DejaVuSans-33" d="M 2597 2516 
Q 3050 2419 3304 2112 
Q 3559 1806 3559 1356 
Q 3559 666 3084 287 
Q 2609 -91 1734 -91 
Q 1441 -91 1130 -33 
Q 819 25 488 141 
L 488 750 
Q 750 597 1062 519 
Q 1375 441 1716 441 
Q 2309 441 2620 675 
Q 2931 909 2931 1356 
Q 2931 1769 2642 2001 
Q 2353 2234 1838 2234 
L 1294 2234 
L 1294 2753 
L 1863 2753 
Q 2328 2753 2575 2939 
Q 2822 3125 2822 3475 
Q 2822 3834 2567 4026 
Q 2313 4219 1838 4219 
Q 1578 4219 1281 4162 
Q 984 4106 628 3988 
L 628 4550 
Q 988 4650 1302 4700 
Q 1616 4750 1894 4750 
Q 2613 4750 3031 4423 
Q 3450 4097 3450 3541 
Q 3450 3153 3228 2886 
Q 3006 2619 2597 2516 
z
" transform="scale(0.015625)"/>
       </defs>
       <use xlink:href="#DejaVuSans-49"/>
       <use xlink:href="#DejaVuSans-56" x="29.492188"/>
       <use xlink:href="#DejaVuSans-53" x="97.900391"/>
       <use xlink:href="#DejaVuSans-5f" x="161.376953"/>
       <use xlink:href="#DejaVuSans-72" x="211.376953"/>
       <use xlink:href="#DejaVuSans-31" x="252.490234"/>
       <use xlink:href="#DejaVuSans-33" x="316.113281"/>
      </g>
     </g>
    </g>
    <g id="xtick_10">
     <g id="line2d_10">
      <g>
       <use xlink:href="#m94b4cbdb3c" x="414.188456" y="245.597813" style="stroke: #000000; stroke-width: 0.8"/>
      </g>
     </g>
     <g id="text_10">
      <!-- IVB_r13 -->
      <g transform="translate(379.530059 291.553209) rotate(-45) scale(0.12 -0.12)">
       <use xlink:href="#DejaVuSans-49"/>
       <use xlink:href="#DejaVuSans-56" x="29.492188"/>
       <use xlink:href="#DejaVuSans-42" x="97.900391"/>
       <use xlink:href="#DejaVuSans-5f" x="166.503906"/>
       <use xlink:href="#DejaVuSans-72" x="216.503906"/>
       <use xlink:href="#DejaVuSans-31" x="257.617188"/>
       <use xlink:href="#DejaVuSans-33" x="321.240234"/>
      </g>
     </g>
    </g>
    <g id="xtick_11">
     <g id="line2d_11">
      <g>
       <use xlink:href="#m94b4cbdb3c" x="448.386617" y="245.597813" style="stroke: #000000; stroke-width: 0.8"/>
      </g>
     </g>
     <g id="text_11">
      <!-- IV_r13 -->
      <g transform="translate(419.549919 285.73151) rotate(-45) scale(0.12 -0.12)">
       <use xlink:href="#DejaVuSans-49"/>
       <use xlink:href="#DejaVuSans-56" x="29.492188"/>
       <use xlink:href="#DejaVuSans-5f" x="97.900391"/>
       <use xlink:href="#DejaVuSans-72" x="147.900391"/>
       <use xlink:href="#DejaVuSans-31" x="189.013672"/>
       <use xlink:href="#DejaVuSans-33" x="252.636719"/>
      </g>
     </g>
    </g>
    <g id="xtick_12">
     <g id="line2d_12">
      <g>
       <use xlink:href="#m94b4cbdb3c" x="482.584778" y="245.597813" style="stroke: #000000; stroke-width: 0.8"/>
      </g>
     </g>
     <g id="text_12">
      <!-- IVB_r15 -->
      <g transform="translate(447.926382 291.46703) rotate(-45) scale(0.12 -0.12)">
       <defs>
        <path id="DejaVuSans-35" d="M 691 4666 
L 3169 4666 
L 3169 4134 
L 1269 4134 
L 1269 2991 
Q 1406 3038 1543 3061 
Q 1681 3084 1819 3084 
Q 2600 3084 3056 2656 
Q 3513 2228 3513 1497 
Q 3513 744 3044 326 
Q 2575 -91 1722 -91 
Q 1428 -91 1123 -41 
Q 819 9 494 109 
L 494 744 
Q 775 591 1075 516 
Q 1375 441 1709 441 
Q 2250 441 2565 725 
Q 2881 1009 2881 1497 
Q 2881 1984 2565 2268 
Q 2250 2553 1709 2553 
Q 1456 2553 1204 2497 
Q 953 2441 691 2322 
L 691 4666 
z
" transform="scale(0.015625)"/>
       </defs>
       <use xlink:href="#DejaVuSans-49"/>
       <use xlink:href="#DejaVuSans-56" x="29.492188"/>
       <use xlink:href="#DejaVuSans-42" x="97.900391"/>
       <use xlink:href="#DejaVuSans-5f" x="166.503906"/>
       <use xlink:href="#DejaVuSans-72" x="216.503906"/>
       <use xlink:href="#DejaVuSans-31" x="257.617188"/>
       <use xlink:href="#DejaVuSans-35" x="321.240234"/>
      </g>
     </g>
    </g>
    <g id="xtick_13">
     <g id="line2d_13">
      <g>
       <use xlink:href="#m94b4cbdb3c" x="516.78294" y="245.597813" style="stroke: #000000; stroke-width: 0.8"/>
      </g>
     </g>
     <g id="text_13">
      <!-- IV_r15 -->
      <g transform="translate(487.946241 285.645332) rotate(-45) scale(0.12 -0.12)">
       <use xlink:href="#DejaVuSans-49"/>
       <use xlink:href="#DejaVuSans-56" x="29.492188"/>
       <use xlink:href="#DejaVuSans-5f" x="97.900391"/>
       <use xlink:href="#DejaVuSans-72" x="147.900391"/>
       <use xlink:href="#DejaVuSans-31" x="189.013672"/>
       <use xlink:href="#DejaVuSans-35" x="252.636719"/>
      </g>
     </g>
    </g>
    <g id="xtick_14">
     <g id="line2d_14">
      <g>
       <use xlink:href="#m94b4cbdb3c" x="550.981101" y="245.597813" style="stroke: #000000; stroke-width: 0.8"/>
      </g>
     </g>
     <g id="text_14">
      <!-- IV_r17 -->
      <g transform="translate(522.144403 285.645332) rotate(-45) scale(0.12 -0.12)">
       <defs>
        <path id="DejaVuSans-37" d="M 525 4666 
L 3525 4666 
L 3525 4397 
L 1831 0 
L 1172 0 
L 2766 4134 
L 525 4134 
L 525 4666 
z
" transform="scale(0.015625)"/>
       </defs>
       <use xlink:href="#DejaVuSans-49"/>
       <use xlink:href="#DejaVuSans-56" x="29.492188"/>
       <use xlink:href="#DejaVuSans-5f" x="97.900391"/>
       <use xlink:href="#DejaVuSans-72" x="147.900391"/>
       <use xlink:href="#DejaVuSans-31" x="189.013672"/>
       <use xlink:href="#DejaVuSans-37" x="252.636719"/>
      </g>
     </g>
    </g>
    <g id="xtick_15">
     <g id="line2d_15">
      <g>
       <use xlink:href="#m94b4cbdb3c" x="585.179263" y="245.597813" style="stroke: #000000; stroke-width: 0.8"/>
      </g>
     </g>
     <g id="text_15">
      <!-- IV_r19 -->
      <g transform="translate(556.342564 285.73151) rotate(-45) scale(0.12 -0.12)">
       <use xlink:href="#DejaVuSans-49"/>
       <use xlink:href="#DejaVuSans-56" x="29.492188"/>
       <use xlink:href="#DejaVuSans-5f" x="97.900391"/>
       <use xlink:href="#DejaVuSans-72" x="147.900391"/>
       <use xlink:href="#DejaVuSans-31" x="189.013672"/>
       <use xlink:href="#DejaVuSans-39" x="252.636719"/>
      </g>
     </g>
    </g>
    <g id="xtick_16">
     <g id="line2d_16">
      <g>
       <use xlink:href="#m94b4cbdb3c" x="619.377424" y="245.597813" style="stroke: #000000; stroke-width: 0.8"/>
      </g>
     </g>
     <g id="text_16">
      <!-- IVB_r100 -->
      <g transform="translate(579.320267 296.951969) rotate(-45) scale(0.12 -0.12)">
       <defs>
        <path id="DejaVuSans-30" d="M 2034 4250 
Q 1547 4250 1301 3770 
Q 1056 3291 1056 2328 
Q 1056 1369 1301 889 
Q 1547 409 2034 409 
Q 2525 409 2770 889 
Q 3016 1369 3016 2328 
Q 3016 3291 2770 3770 
Q 2525 4250 2034 4250 
z
M 2034 4750 
Q 2819 4750 3233 4129 
Q 3647 3509 3647 2328 
Q 3647 1150 3233 529 
Q 2819 -91 2034 -91 
Q 1250 -91 836 529 
Q 422 1150 422 2328 
Q 422 3509 836 4129 
Q 1250 4750 2034 4750 
z
" transform="scale(0.015625)"/>
       </defs>
       <use xlink:href="#DejaVuSans-49"/>
       <use xlink:href="#DejaVuSans-56" x="29.492188"/>
       <use xlink:href="#DejaVuSans-42" x="97.900391"/>
       <use xlink:href="#DejaVuSans-5f" x="166.503906"/>
       <use xlink:href="#DejaVuSans-72" x="216.503906"/>
       <use xlink:href="#DejaVuSans-31" x="257.617188"/>
       <use xlink:href="#DejaVuSans-30" x="321.240234"/>
       <use xlink:href="#DejaVuSans-30" x="384.863281"/>
      </g>
     </g>
    </g>
    <g id="xtick_17">
     <g id="line2d_17">
      <g>
       <use xlink:href="#m94b4cbdb3c" x="653.575585" y="245.597813" style="stroke: #000000; stroke-width: 0.8"/>
      </g>
     </g>
     <g id="text_17">
      <!-- IV_r100 -->
      <g transform="translate(619.340127 291.130271) rotate(-45) scale(0.12 -0.12)">
       <use xlink:href="#DejaVuSans-49"/>
       <use xlink:href="#DejaVuSans-56" x="29.492188"/>
       <use xlink:href="#DejaVuSans-5f" x="97.900391"/>
       <use xlink:href="#DejaVuSans-72" x="147.900391"/>
       <use xlink:href="#DejaVuSans-31" x="189.013672"/>
       <use xlink:href="#DejaVuSans-30" x="252.636719"/>
       <use xlink:href="#DejaVuSans-30" x="316.259766"/>
      </g>
     </g>
    </g>
    <g id="xtick_18">
     <g id="line2d_18">
      <g>
       <use xlink:href="#m94b4cbdb3c" x="687.773747" y="245.597813" style="stroke: #000000; stroke-width: 0.8"/>
      </g>
     </g>
     <g id="text_18">
      <!-- XCLIP_r8 -->
      <g transform="translate(649.173672 295.494887) rotate(-45) scale(0.12 -0.12)">
       <defs>
        <path id="DejaVuSans-58" d="M 403 4666 
L 1081 4666 
L 2241 2931 
L 3406 4666 
L 4084 4666 
L 2584 2425 
L 4184 0 
L 3506 0 
L 2194 1984 
L 872 0 
L 191 0 
L 1856 2491 
L 403 4666 
z
" transform="scale(0.015625)"/>
        <path id="DejaVuSans-43" d="M 4122 4306 
L 4122 3641 
Q 3803 3938 3442 4084 
Q 3081 4231 2675 4231 
Q 1875 4231 1450 3742 
Q 1025 3253 1025 2328 
Q 1025 1406 1450 917 
Q 1875 428 2675 428 
Q 3081 428 3442 575 
Q 3803 722 4122 1019 
L 4122 359 
Q 3791 134 3420 21 
Q 3050 -91 2638 -91 
Q 1578 -91 968 557 
Q 359 1206 359 2328 
Q 359 3453 968 4101 
Q 1578 4750 2638 4750 
Q 3056 4750 3426 4639 
Q 3797 4528 4122 4306 
z
" transform="scale(0.015625)"/>
        <path id="DejaVuSans-4c" d="M 628 4666 
L 1259 4666 
L 1259 531 
L 3531 531 
L 3531 0 
L 628 0 
L 628 4666 
z
" transform="scale(0.015625)"/>
        <path id="DejaVuSans-50" d="M 1259 4147 
L 1259 2394 
L 2053 2394 
Q 2494 2394 2734 2622 
Q 2975 2850 2975 3272 
Q 2975 3691 2734 3919 
Q 2494 4147 2053 4147 
L 1259 4147 
z
M 628 4666 
L 2053 4666 
Q 2838 4666 3239 4311 
Q 3641 3956 3641 3272 
Q 3641 2581 3239 2228 
Q 2838 1875 2053 1875 
L 1259 1875 
L 1259 0 
L 628 0 
L 628 4666 
z
" transform="scale(0.015625)"/>
       </defs>
       <use xlink:href="#DejaVuSans-58"/>
       <use xlink:href="#DejaVuSans-43" x="61.255859"/>
       <use xlink:href="#DejaVuSans-4c" x="131.080078"/>
       <use xlink:href="#DejaVuSans-49" x="186.792969"/>
       <use xlink:href="#DejaVuSans-50" x="216.285156"/>
       <use xlink:href="#DejaVuSans-5f" x="276.587891"/>
       <use xlink:href="#DejaVuSans-72" x="326.587891"/>
       <use xlink:href="#DejaVuSans-38" x="367.701172"/>
      </g>
     </g>
    </g>
    <g id="text_19">
     <!-- Window Size -->
     <g transform="translate(352.898594 313.590452) scale(0.14 -0.14)">
      <defs>
       <path id="DejaVuSans-57" d="M 213 4666 
L 850 4666 
L 1831 722 
L 2809 4666 
L 3519 4666 
L 4500 722 
L 5478 4666 
L 6119 4666 
L 4947 0 
L 4153 0 
L 3169 4050 
L 2175 0 
L 1381 0 
L 213 4666 
z
" transform="scale(0.015625)"/>
       <path id="DejaVuSans-69" d="M 603 3500 
L 1178 3500 
L 1178 0 
L 603 0 
L 603 3500 
z
M 603 4863 
L 1178 4863 
L 1178 4134 
L 603 4134 
L 603 4863 
z
" transform="scale(0.015625)"/>
       <path id="DejaVuSans-6e" d="M 3513 2113 
L 3513 0 
L 2938 0 
L 2938 2094 
Q 2938 2591 2744 2837 
Q 2550 3084 2163 3084 
Q 1697 3084 1428 2787 
Q 1159 2491 1159 1978 
L 1159 0 
L 581 0 
L 581 3500 
L 1159 3500 
L 1159 2956 
Q 1366 3272 1645 3428 
Q 1925 3584 2291 3584 
Q 2894 3584 3203 3211 
Q 3513 2838 3513 2113 
z
" transform="scale(0.015625)"/>
       <path id="DejaVuSans-64" d="M 2906 2969 
L 2906 4863 
L 3481 4863 
L 3481 0 
L 2906 0 
L 2906 525 
Q 2725 213 2448 61 
Q 2172 -91 1784 -91 
Q 1150 -91 751 415 
Q 353 922 353 1747 
Q 353 2572 751 3078 
Q 1150 3584 1784 3584 
Q 2172 3584 2448 3432 
Q 2725 3281 2906 2969 
z
M 947 1747 
Q 947 1113 1208 752 
Q 1469 391 1925 391 
Q 2381 391 2643 752 
Q 2906 1113 2906 1747 
Q 2906 2381 2643 2742 
Q 2381 3103 1925 3103 
Q 1469 3103 1208 2742 
Q 947 2381 947 1747 
z
" transform="scale(0.015625)"/>
       <path id="DejaVuSans-6f" d="M 1959 3097 
Q 1497 3097 1228 2736 
Q 959 2375 959 1747 
Q 959 1119 1226 758 
Q 1494 397 1959 397 
Q 2419 397 2687 759 
Q 2956 1122 2956 1747 
Q 2956 2369 2687 2733 
Q 2419 3097 1959 3097 
z
M 1959 3584 
Q 2709 3584 3137 3096 
Q 3566 2609 3566 1747 
Q 3566 888 3137 398 
Q 2709 -91 1959 -91 
Q 1206 -91 779 398 
Q 353 888 353 1747 
Q 353 2609 779 3096 
Q 1206 3584 1959 3584 
z
" transform="scale(0.015625)"/>
       <path id="DejaVuSans-77" d="M 269 3500 
L 844 3500 
L 1563 769 
L 2278 3500 
L 2956 3500 
L 3675 769 
L 4391 3500 
L 4966 3500 
L 4050 0 
L 3372 0 
L 2619 2869 
L 1863 0 
L 1184 0 
L 269 3500 
z
" transform="scale(0.015625)"/>
       <path id="DejaVuSans-20" transform="scale(0.015625)"/>
       <path id="DejaVuSans-7a" d="M 353 3500 
L 3084 3500 
L 3084 2975 
L 922 459 
L 3084 459 
L 3084 0 
L 275 0 
L 275 525 
L 2438 3041 
L 353 3041 
L 353 3500 
z
" transform="scale(0.015625)"/>
       <path id="DejaVuSans-65" d="M 3597 1894 
L 3597 1613 
L 953 1613 
Q 991 1019 1311 708 
Q 1631 397 2203 397 
Q 2534 397 2845 478 
Q 3156 559 3463 722 
L 3463 178 
Q 3153 47 2828 -22 
Q 2503 -91 2169 -91 
Q 1331 -91 842 396 
Q 353 884 353 1716 
Q 353 2575 817 3079 
Q 1281 3584 2069 3584 
Q 2775 3584 3186 3129 
Q 3597 2675 3597 1894 
z
M 3022 2063 
Q 3016 2534 2758 2815 
Q 2500 3097 2075 3097 
Q 1594 3097 1305 2825 
Q 1016 2553 972 2059 
L 3022 2063 
z
" transform="scale(0.015625)"/>
      </defs>
      <use xlink:href="#DejaVuSans-57"/>
      <use xlink:href="#DejaVuSans-69" x="96.626953"/>
      <use xlink:href="#DejaVuSans-6e" x="124.410156"/>
      <use xlink:href="#DejaVuSans-64" x="187.789062"/>
      <use xlink:href="#DejaVuSans-6f" x="251.265625"/>
      <use xlink:href="#DejaVuSans-77" x="312.447266"/>
      <use xlink:href="#DejaVuSans-20" x="394.234375"/>
      <use xlink:href="#DejaVuSans-53" x="426.021484"/>
      <use xlink:href="#DejaVuSans-69" x="489.498047"/>
      <use xlink:href="#DejaVuSans-7a" x="517.28125"/>
      <use xlink:href="#DejaVuSans-65" x="569.771484"/>
     </g>
    </g>
   </g>
   <g id="matplotlib.axis_2">
    <g id="ytick_1">
     <g id="line2d_19">
      <defs>
       <path id="m0489eb785e" d="M 0 0 
L -3.5 0 
" style="stroke: #000000; stroke-width: 0.8"/>
      </defs>
      <g>
       <use xlink:href="#m0489eb785e" x="62.289375" y="245.597813" style="stroke: #000000; stroke-width: 0.8"/>
      </g>
     </g>
     <g id="text_20">
      <!-- 0 -->
      <g transform="translate(47.654375 250.156875) scale(0.12 -0.12)">
       <use xlink:href="#DejaVuSans-30"/>
      </g>
     </g>
    </g>
    <g id="ytick_2">
     <g id="line2d_20">
      <g>
       <use xlink:href="#m0489eb785e" x="62.289375" y="206.344202" style="stroke: #000000; stroke-width: 0.8"/>
      </g>
     </g>
     <g id="text_21">
      <!-- 500 -->
      <g transform="translate(32.384375 210.903265) scale(0.12 -0.12)">
       <use xlink:href="#DejaVuSans-35"/>
       <use xlink:href="#DejaVuSans-30" x="63.623047"/>
       <use xlink:href="#DejaVuSans-30" x="127.246094"/>
      </g>
     </g>
    </g>
    <g id="ytick_3">
     <g id="line2d_21">
      <g>
       <use xlink:href="#m0489eb785e" x="62.289375" y="167.090592" style="stroke: #000000; stroke-width: 0.8"/>
      </g>
     </g>
     <g id="text_22">
      <!-- 1000 -->
      <g transform="translate(24.749375 171.649654) scale(0.12 -0.12)">
       <use xlink:href="#DejaVuSans-31"/>
       <use xlink:href="#DejaVuSans-30" x="63.623047"/>
       <use xlink:href="#DejaVuSans-30" x="127.246094"/>
       <use xlink:href="#DejaVuSans-30" x="190.869141"/>
      </g>
     </g>
    </g>
    <g id="ytick_4">
     <g id="line2d_22">
      <g>
       <use xlink:href="#m0489eb785e" x="62.289375" y="127.836981" style="stroke: #000000; stroke-width: 0.8"/>
      </g>
     </g>
     <g id="text_23">
      <!-- 1500 -->
      <g transform="translate(24.749375 132.396044) scale(0.12 -0.12)">
       <use xlink:href="#DejaVuSans-31"/>
       <use xlink:href="#DejaVuSans-35" x="63.623047"/>
       <use xlink:href="#DejaVuSans-30" x="127.246094"/>
       <use xlink:href="#DejaVuSans-30" x="190.869141"/>
      </g>
     </g>
    </g>
    <g id="ytick_5">
     <g id="line2d_23">
      <g>
       <use xlink:href="#m0489eb785e" x="62.289375" y="88.583371" style="stroke: #000000; stroke-width: 0.8"/>
      </g>
     </g>
     <g id="text_24">
      <!-- 2000 -->
      <g transform="translate(24.749375 93.142433) scale(0.12 -0.12)">
       <use xlink:href="#DejaVuSans-32"/>
       <use xlink:href="#DejaVuSans-30" x="63.623047"/>
       <use xlink:href="#DejaVuSans-30" x="127.246094"/>
       <use xlink:href="#DejaVuSans-30" x="190.869141"/>
      </g>
     </g>
    </g>
    <g id="ytick_6">
     <g id="line2d_24">
      <g>
       <use xlink:href="#m0489eb785e" x="62.289375" y="49.32976" style="stroke: #000000; stroke-width: 0.8"/>
      </g>
     </g>
     <g id="text_25">
      <!-- 2500 -->
      <g transform="translate(24.749375 53.888823) scale(0.12 -0.12)">
       <use xlink:href="#DejaVuSans-32"/>
       <use xlink:href="#DejaVuSans-35" x="63.623047"/>
       <use xlink:href="#DejaVuSans-30" x="127.246094"/>
       <use xlink:href="#DejaVuSans-30" x="190.869141"/>
      </g>
     </g>
    </g>
    <g id="text_26">
     <!-- Mean Squared Error -->
     <g transform="translate(17.837812 204.384219) rotate(-90) scale(0.14 -0.14)">
      <defs>
       <path id="DejaVuSans-4d" d="M 628 4666 
L 1569 4666 
L 2759 1491 
L 3956 4666 
L 4897 4666 
L 4897 0 
L 4281 0 
L 4281 4097 
L 3078 897 
L 2444 897 
L 1241 4097 
L 1241 0 
L 628 0 
L 628 4666 
z
" transform="scale(0.015625)"/>
       <path id="DejaVuSans-61" d="M 2194 1759 
Q 1497 1759 1228 1600 
Q 959 1441 959 1056 
Q 959 750 1161 570 
Q 1363 391 1709 391 
Q 2188 391 2477 730 
Q 2766 1069 2766 1631 
L 2766 1759 
L 2194 1759 
z
M 3341 1997 
L 3341 0 
L 2766 0 
L 2766 531 
Q 2569 213 2275 61 
Q 1981 -91 1556 -91 
Q 1019 -91 701 211 
Q 384 513 384 1019 
Q 384 1609 779 1909 
Q 1175 2209 1959 2209 
L 2766 2209 
L 2766 2266 
Q 2766 2663 2505 2880 
Q 2244 3097 1772 3097 
Q 1472 3097 1187 3025 
Q 903 2953 641 2809 
L 641 3341 
Q 956 3463 1253 3523 
Q 1550 3584 1831 3584 
Q 2591 3584 2966 3190 
Q 3341 2797 3341 1997 
z
" transform="scale(0.015625)"/>
       <path id="DejaVuSans-71" d="M 947 1747 
Q 947 1113 1208 752 
Q 1469 391 1925 391 
Q 2381 391 2643 752 
Q 2906 1113 2906 1747 
Q 2906 2381 2643 2742 
Q 2381 3103 1925 3103 
Q 1469 3103 1208 2742 
Q 947 2381 947 1747 
z
M 2906 525 
Q 2725 213 2448 61 
Q 2172 -91 1784 -91 
Q 1150 -91 751 415 
Q 353 922 353 1747 
Q 353 2572 751 3078 
Q 1150 3584 1784 3584 
Q 2172 3584 2448 3432 
Q 2725 3281 2906 2969 
L 2906 3500 
L 3481 3500 
L 3481 -1331 
L 2906 -1331 
L 2906 525 
z
" transform="scale(0.015625)"/>
       <path id="DejaVuSans-75" d="M 544 1381 
L 544 3500 
L 1119 3500 
L 1119 1403 
Q 1119 906 1312 657 
Q 1506 409 1894 409 
Q 2359 409 2629 706 
Q 2900 1003 2900 1516 
L 2900 3500 
L 3475 3500 
L 3475 0 
L 2900 0 
L 2900 538 
Q 2691 219 2414 64 
Q 2138 -91 1772 -91 
Q 1169 -91 856 284 
Q 544 659 544 1381 
z
M 1991 3584 
L 1991 3584 
z
" transform="scale(0.015625)"/>
       <path id="DejaVuSans-45" d="M 628 4666 
L 3578 4666 
L 3578 4134 
L 1259 4134 
L 1259 2753 
L 3481 2753 
L 3481 2222 
L 1259 2222 
L 1259 531 
L 3634 531 
L 3634 0 
L 628 0 
L 628 4666 
z
" transform="scale(0.015625)"/>
      </defs>
      <use xlink:href="#DejaVuSans-4d"/>
      <use xlink:href="#DejaVuSans-65" x="86.279297"/>
      <use xlink:href="#DejaVuSans-61" x="147.802734"/>
      <use xlink:href="#DejaVuSans-6e" x="209.082031"/>
      <use xlink:href="#DejaVuSans-20" x="272.460938"/>
      <use xlink:href="#DejaVuSans-53" x="304.248047"/>
      <use xlink:href="#DejaVuSans-71" x="367.724609"/>
      <use xlink:href="#DejaVuSans-75" x="431.201172"/>
      <use xlink:href="#DejaVuSans-61" x="494.580078"/>
      <use xlink:href="#DejaVuSans-72" x="555.859375"/>
      <use xlink:href="#DejaVuSans-65" x="594.722656"/>
      <use xlink:href="#DejaVuSans-64" x="656.246094"/>
      <use xlink:href="#DejaVuSans-20" x="719.722656"/>
      <use xlink:href="#DejaVuSans-45" x="751.509766"/>
      <use xlink:href="#DejaVuSans-72" x="814.693359"/>
      <use xlink:href="#DejaVuSans-72" x="854.056641"/>
      <use xlink:href="#DejaVuSans-6f" x="892.919922"/>
      <use xlink:href="#DejaVuSans-72" x="954.101562"/>
     </g>
    </g>
   </g>
   <g id="patch_21">
    <path d="M 62.289375 245.597813 
L 62.289375 23.837813 
" style="fill: none; stroke: #000000; stroke-width: 0.8; stroke-linejoin: miter; stroke-linecap: square"/>
   </g>
   <g id="patch_22">
    <path d="M 731.889375 245.597813 
L 731.889375 23.837813 
" style="fill: none; stroke: #000000; stroke-width: 0.8; stroke-linejoin: miter; stroke-linecap: square"/>
   </g>
   <g id="patch_23">
    <path d="M 62.289375 245.597813 
L 731.889375 245.597813 
" style="fill: none; stroke: #000000; stroke-width: 0.8; stroke-linejoin: miter; stroke-linecap: square"/>
   </g>
   <g id="patch_24">
    <path d="M 62.289375 23.837813 
L 731.889375 23.837813 
" style="fill: none; stroke: #000000; stroke-width: 0.8; stroke-linejoin: miter; stroke-linecap: square"/>
   </g>
   <g id="text_27">
    <!-- Mean Squared Error across Window Sizes on Dataset -->
    <g transform="translate(212.120937 17.837813) scale(0.14 -0.14)">
     <defs>
      <path id="DejaVuSans-63" d="M 3122 3366 
L 3122 2828 
Q 2878 2963 2633 3030 
Q 2388 3097 2138 3097 
Q 1578 3097 1268 2742 
Q 959 2388 959 1747 
Q 959 1106 1268 751 
Q 1578 397 2138 397 
Q 2388 397 2633 464 
Q 2878 531 3122 666 
L 3122 134 
Q 2881 22 2623 -34 
Q 2366 -91 2075 -91 
Q 1284 -91 818 406 
Q 353 903 353 1747 
Q 353 2603 823 3093 
Q 1294 3584 2113 3584 
Q 2378 3584 2631 3529 
Q 2884 3475 3122 3366 
z
" transform="scale(0.015625)"/>
      <path id="DejaVuSans-73" d="M 2834 3397 
L 2834 2853 
Q 2591 2978 2328 3040 
Q 2066 3103 1784 3103 
Q 1356 3103 1142 2972 
Q 928 2841 928 2578 
Q 928 2378 1081 2264 
Q 1234 2150 1697 2047 
L 1894 2003 
Q 2506 1872 2764 1633 
Q 3022 1394 3022 966 
Q 3022 478 2636 193 
Q 2250 -91 1575 -91 
Q 1294 -91 989 -36 
Q 684 19 347 128 
L 347 722 
Q 666 556 975 473 
Q 1284 391 1588 391 
Q 1994 391 2212 530 
Q 2431 669 2431 922 
Q 2431 1156 2273 1281 
Q 2116 1406 1581 1522 
L 1381 1569 
Q 847 1681 609 1914 
Q 372 2147 372 2553 
Q 372 3047 722 3315 
Q 1072 3584 1716 3584 
Q 2034 3584 2315 3537 
Q 2597 3491 2834 3397 
z
" transform="scale(0.015625)"/>
      <path id="DejaVuSans-44" d="M 1259 4147 
L 1259 519 
L 2022 519 
Q 2988 519 3436 956 
Q 3884 1394 3884 2338 
Q 3884 3275 3436 3711 
Q 2988 4147 2022 4147 
L 1259 4147 
z
M 628 4666 
L 1925 4666 
Q 3281 4666 3915 4102 
Q 4550 3538 4550 2338 
Q 4550 1131 3912 565 
Q 3275 0 1925 0 
L 628 0 
L 628 4666 
z
" transform="scale(0.015625)"/>
      <path id="DejaVuSans-74" d="M 1172 4494 
L 1172 3500 
L 2356 3500 
L 2356 3053 
L 1172 3053 
L 1172 1153 
Q 1172 725 1289 603 
Q 1406 481 1766 481 
L 2356 481 
L 2356 0 
L 1766 0 
Q 1100 0 847 248 
Q 594 497 594 1153 
L 594 3053 
L 172 3053 
L 172 3500 
L 594 3500 
L 594 4494 
L 1172 4494 
z
" transform="scale(0.015625)"/>
     </defs>
     <use xlink:href="#DejaVuSans-4d"/>
     <use xlink:href="#DejaVuSans-65" x="86.279297"/>
     <use xlink:href="#DejaVuSans-61" x="147.802734"/>
     <use xlink:href="#DejaVuSans-6e" x="209.082031"/>
     <use xlink:href="#DejaVuSans-20" x="272.460938"/>
     <use xlink:href="#DejaVuSans-53" x="304.248047"/>
     <use xlink:href="#DejaVuSans-71" x="367.724609"/>
     <use xlink:href="#DejaVuSans-75" x="431.201172"/>
     <use xlink:href="#DejaVuSans-61" x="494.580078"/>
     <use xlink:href="#DejaVuSans-72" x="555.859375"/>
     <use xlink:href="#DejaVuSans-65" x="594.722656"/>
     <use xlink:href="#DejaVuSans-64" x="656.246094"/>
     <use xlink:href="#DejaVuSans-20" x="719.722656"/>
     <use xlink:href="#DejaVuSans-45" x="751.509766"/>
     <use xlink:href="#DejaVuSans-72" x="814.693359"/>
     <use xlink:href="#DejaVuSans-72" x="854.056641"/>
     <use xlink:href="#DejaVuSans-6f" x="892.919922"/>
     <use xlink:href="#DejaVuSans-72" x="954.101562"/>
     <use xlink:href="#DejaVuSans-20" x="995.214844"/>
     <use xlink:href="#DejaVuSans-61" x="1027.001953"/>
     <use xlink:href="#DejaVuSans-63" x="1088.28125"/>
     <use xlink:href="#DejaVuSans-72" x="1143.261719"/>
     <use xlink:href="#DejaVuSans-6f" x="1182.125"/>
     <use xlink:href="#DejaVuSans-73" x="1243.306641"/>
     <use xlink:href="#DejaVuSans-73" x="1295.40625"/>
     <use xlink:href="#DejaVuSans-20" x="1347.505859"/>
     <use xlink:href="#DejaVuSans-57" x="1379.292969"/>
     <use xlink:href="#DejaVuSans-69" x="1475.919922"/>
     <use xlink:href="#DejaVuSans-6e" x="1503.703125"/>
     <use xlink:href="#DejaVuSans-64" x="1567.082031"/>
     <use xlink:href="#DejaVuSans-6f" x="1630.558594"/>
     <use xlink:href="#DejaVuSans-77" x="1691.740234"/>
     <use xlink:href="#DejaVuSans-20" x="1773.527344"/>
     <use xlink:href="#DejaVuSans-53" x="1805.314453"/>
     <use xlink:href="#DejaVuSans-69" x="1868.791016"/>
     <use xlink:href="#DejaVuSans-7a" x="1896.574219"/>
     <use xlink:href="#DejaVuSans-65" x="1949.064453"/>
     <use xlink:href="#DejaVuSans-73" x="2010.587891"/>
     <use xlink:href="#DejaVuSans-20" x="2062.6875"/>
     <use xlink:href="#DejaVuSans-6f" x="2094.474609"/>
     <use xlink:href="#DejaVuSans-6e" x="2155.65625"/>
     <use xlink:href="#DejaVuSans-20" x="2219.035156"/>
     <use xlink:href="#DejaVuSans-44" x="2250.822266"/>
     <use xlink:href="#DejaVuSans-61" x="2327.824219"/>
     <use xlink:href="#DejaVuSans-74" x="2389.103516"/>
     <use xlink:href="#DejaVuSans-61" x="2428.3125"/>
     <use xlink:href="#DejaVuSans-73" x="2489.591797"/>
     <use xlink:href="#DejaVuSans-65" x="2541.691406"/>
     <use xlink:href="#DejaVuSans-74" x="2603.214844"/>
    </g>
   </g>
  </g>
 </g>
 <defs>
  <clipPath id="p6d855c5fd0">
   <rect x="62.289375" y="23.837813" width="669.6" height="221.76"/>
  </clipPath>
 </defs>
</svg>
